<?xml version="1.0" encoding="utf-8"?>
<!-- Generator: Adobe Illustrator 25.0.1, SVG Export Plug-In . SVG Version: 6.00 Build 0)  -->
<svg version="1.0" id="Layer_1" xmlns="http://www.w3.org/2000/svg" xmlns:xlink="http://www.w3.org/1999/xlink" x="0px" y="0px"
	 viewBox="0 0 289 213" style="enable-background:new 0 0 289 213;" xml:space="preserve">
<style type="text/css">
	.st0{fill:black;}
	.st1{fill:none;}
</style>
<g id="Group_2">
	<g id="Group_1">
		<path id="Path_1" class="st0" d="M230.2,132.8c-0.4,0.7-1.1,1.1-1.9,1.1h-27.3l-16.1-28c-0.5-0.8-1.5-1.1-2.3-0.6c0,0,0,0,0,0
			c-0.3,0.1-0.5,0.4-0.6,0.6l-17.7,30.8c-0.1,0.2-0.3,0.3-0.5,0.3c-2.6-0.1-11.4-2.3-25.7-9.2l43.3-75.1c0.6-1.1,2-1.4,3.1-0.8
			c0,0,0,0,0,0c0.3,0.2,0.6,0.5,0.8,0.8l44.9,77.8C230.6,131.2,230.6,132.1,230.2,132.8z"/>
	</g>
	<path id="Path_2" class="st0" d="M133.2,132c-2.8-1.8-5.8-3.4-8.8-4.8c20-12.7,25.9-39.2,13.2-59.2S98.4,42.1,78.4,54.8
		S52.5,94,65.2,114c7.1,11.1,18.9,18.4,32,19.7l-4.8,8.3c-0.7,1.1-0.3,2.6,0.9,3.2c0,0,0,0,0,0c0.4,0.2,0.8,0.3,1.2,0.3
		c5.4,0,13.8,0.7,26.1,8.4c13.9,8.8,23.5,10.5,26.4,10.8c0.6,0.1,1.1-0.2,1.4-0.7l11.4-19.8c0.3-0.5,0.1-1.2-0.4-1.5c0,0,0,0,0,0
		c-0.1-0.1-0.3-0.1-0.4-0.1C155.4,142.2,146.2,140.2,133.2,132z M101.4,108.1c-9.4,0-17-7.6-17-17s7.6-17,17-17s17,7.6,17,17l0,0
		l0,0C118.4,100.5,110.8,108.1,101.4,108.1z"/>
</g>
<rect x="49" y="41" class="st1" width="191" height="131"/>
</svg>
